<mxfile host="app.diagrams.net" modified="2023-12-19T12:39:01.605Z" agent="Mozilla/5.0 (Windows NT 10.0; Win64; x64) AppleWebKit/537.36 (KHTML, like Gecko) Chrome/120.0.0.0 Safari/537.36" etag="mad-J_FXaORoSO9pIWUG" version="22.1.11" type="device">
  <diagram name="第 1 页" id="Pl20I28yWBVB3-L0aCYP">
    <mxGraphModel dx="1195" dy="1791" grid="1" gridSize="10" guides="1" tooltips="1" connect="1" arrows="1" fold="1" page="1" pageScale="1" pageWidth="827" pageHeight="1169" math="0" shadow="0">
      <root>
        <mxCell id="0" />
        <mxCell id="1" parent="0" />
        <mxCell id="skcRQjhj_6bjSyMf3CT0-72" value="Patient" style="swimlane;fontStyle=1;align=center;verticalAlign=top;childLayout=stackLayout;horizontal=1;startSize=24.928571428571427;horizontalStack=0;resizeParent=1;resizeParentMax=0;resizeLast=0;collapsible=0;marginBottom=0;" vertex="1" parent="1">
          <mxGeometry x="264" y="20" width="1133" height="357.92857142857144" as="geometry" />
        </mxCell>
        <mxCell id="skcRQjhj_6bjSyMf3CT0-73" value="-patientID:int " style="text;strokeColor=none;fillColor=none;align=left;verticalAlign=top;spacingLeft=4;spacingRight=4;overflow=hidden;rotatable=0;points=[[0,0.5],[1,0.5]];portConstraint=eastwest;" vertex="1" parent="skcRQjhj_6bjSyMf3CT0-72">
          <mxGeometry y="24.928571428571427" width="1133" height="25" as="geometry" />
        </mxCell>
        <mxCell id="skcRQjhj_6bjSyMf3CT0-74" value="-username:String " style="text;strokeColor=none;fillColor=none;align=left;verticalAlign=top;spacingLeft=4;spacingRight=4;overflow=hidden;rotatable=0;points=[[0,0.5],[1,0.5]];portConstraint=eastwest;" vertex="1" parent="skcRQjhj_6bjSyMf3CT0-72">
          <mxGeometry y="49.92857142857143" width="1133" height="25" as="geometry" />
        </mxCell>
        <mxCell id="skcRQjhj_6bjSyMf3CT0-75" value="-phoneNumber:String " style="text;strokeColor=none;fillColor=none;align=left;verticalAlign=top;spacingLeft=4;spacingRight=4;overflow=hidden;rotatable=0;points=[[0,0.5],[1,0.5]];portConstraint=eastwest;" vertex="1" parent="skcRQjhj_6bjSyMf3CT0-72">
          <mxGeometry y="74.92857142857143" width="1133" height="25" as="geometry" />
        </mxCell>
        <mxCell id="skcRQjhj_6bjSyMf3CT0-76" value="-email:String " style="text;strokeColor=none;fillColor=none;align=left;verticalAlign=top;spacingLeft=4;spacingRight=4;overflow=hidden;rotatable=0;points=[[0,0.5],[1,0.5]];portConstraint=eastwest;" vertex="1" parent="skcRQjhj_6bjSyMf3CT0-72">
          <mxGeometry y="99.92857142857143" width="1133" height="25" as="geometry" />
        </mxCell>
        <mxCell id="skcRQjhj_6bjSyMf3CT0-77" value="-password:String " style="text;strokeColor=none;fillColor=none;align=left;verticalAlign=top;spacingLeft=4;spacingRight=4;overflow=hidden;rotatable=0;points=[[0,0.5],[1,0.5]];portConstraint=eastwest;" vertex="1" parent="skcRQjhj_6bjSyMf3CT0-72">
          <mxGeometry y="124.92857142857143" width="1133" height="25" as="geometry" />
        </mxCell>
        <mxCell id="skcRQjhj_6bjSyMf3CT0-78" value="-photo:String " style="text;strokeColor=none;fillColor=none;align=left;verticalAlign=top;spacingLeft=4;spacingRight=4;overflow=hidden;rotatable=0;points=[[0,0.5],[1,0.5]];portConstraint=eastwest;" vertex="1" parent="skcRQjhj_6bjSyMf3CT0-72">
          <mxGeometry y="149.92857142857144" width="1133" height="25" as="geometry" />
        </mxCell>
        <mxCell id="skcRQjhj_6bjSyMf3CT0-79" value="-dateOfBirth:Date " style="text;strokeColor=none;fillColor=none;align=left;verticalAlign=top;spacingLeft=4;spacingRight=4;overflow=hidden;rotatable=0;points=[[0,0.5],[1,0.5]];portConstraint=eastwest;" vertex="1" parent="skcRQjhj_6bjSyMf3CT0-72">
          <mxGeometry y="174.92857142857144" width="1133" height="25" as="geometry" />
        </mxCell>
        <mxCell id="skcRQjhj_6bjSyMf3CT0-80" value="-address:String " style="text;strokeColor=none;fillColor=none;align=left;verticalAlign=top;spacingLeft=4;spacingRight=4;overflow=hidden;rotatable=0;points=[[0,0.5],[1,0.5]];portConstraint=eastwest;" vertex="1" parent="skcRQjhj_6bjSyMf3CT0-72">
          <mxGeometry y="199.92857142857144" width="1133" height="25" as="geometry" />
        </mxCell>
        <mxCell id="skcRQjhj_6bjSyMf3CT0-81" value="-gender:String " style="text;strokeColor=none;fillColor=none;align=left;verticalAlign=top;spacingLeft=4;spacingRight=4;overflow=hidden;rotatable=0;points=[[0,0.5],[1,0.5]];portConstraint=eastwest;" vertex="1" parent="skcRQjhj_6bjSyMf3CT0-72">
          <mxGeometry y="224.92857142857144" width="1133" height="25" as="geometry" />
        </mxCell>
        <mxCell id="skcRQjhj_6bjSyMf3CT0-82" style="line;strokeWidth=1;fillColor=none;align=left;verticalAlign=middle;spacingTop=-1;spacingLeft=3;spacingRight=3;rotatable=0;labelPosition=right;points=[];portConstraint=eastwest;strokeColor=inherit;" vertex="1" parent="skcRQjhj_6bjSyMf3CT0-72">
          <mxGeometry y="249.92857142857144" width="1133" height="8" as="geometry" />
        </mxCell>
        <mxCell id="skcRQjhj_6bjSyMf3CT0-83" value="+login(String username, String password):Boolean " style="text;strokeColor=none;fillColor=none;align=left;verticalAlign=top;spacingLeft=4;spacingRight=4;overflow=hidden;rotatable=0;points=[[0,0.5],[1,0.5]];portConstraint=eastwest;" vertex="1" parent="skcRQjhj_6bjSyMf3CT0-72">
          <mxGeometry y="257.92857142857144" width="1133" height="25" as="geometry" />
        </mxCell>
        <mxCell id="skcRQjhj_6bjSyMf3CT0-84" value="+logout():void " style="text;strokeColor=none;fillColor=none;align=left;verticalAlign=top;spacingLeft=4;spacingRight=4;overflow=hidden;rotatable=0;points=[[0,0.5],[1,0.5]];portConstraint=eastwest;" vertex="1" parent="skcRQjhj_6bjSyMf3CT0-72">
          <mxGeometry y="282.92857142857144" width="1133" height="25" as="geometry" />
        </mxCell>
        <mxCell id="skcRQjhj_6bjSyMf3CT0-85" value="+register(String username, String phoneNumber, String email, String password, String photo, Date dateOfBirth, String address, String gender):Boolean " style="text;strokeColor=none;fillColor=none;align=left;verticalAlign=top;spacingLeft=4;spacingRight=4;overflow=hidden;rotatable=0;points=[[0,0.5],[1,0.5]];portConstraint=eastwest;" vertex="1" parent="skcRQjhj_6bjSyMf3CT0-72">
          <mxGeometry y="307.92857142857144" width="1133" height="25" as="geometry" />
        </mxCell>
        <mxCell id="skcRQjhj_6bjSyMf3CT0-86" value="+updateProfile(String username, String phoneNumber, String email, String password, String photo, Date dateOfBirth, String address, String gender):Boolean " style="text;strokeColor=none;fillColor=none;align=left;verticalAlign=top;spacingLeft=4;spacingRight=4;overflow=hidden;rotatable=0;points=[[0,0.5],[1,0.5]];portConstraint=eastwest;" vertex="1" parent="skcRQjhj_6bjSyMf3CT0-72">
          <mxGeometry y="332.92857142857144" width="1133" height="25" as="geometry" />
        </mxCell>
        <mxCell id="skcRQjhj_6bjSyMf3CT0-87" value="Test" style="swimlane;fontStyle=1;align=center;verticalAlign=top;childLayout=stackLayout;horizontal=1;startSize=26.375;horizontalStack=0;resizeParent=1;resizeParentMax=0;resizeLast=0;collapsible=0;marginBottom=0;" vertex="1" parent="1">
          <mxGeometry x="20" y="469" width="415" height="216.375" as="geometry" />
        </mxCell>
        <mxCell id="skcRQjhj_6bjSyMf3CT0-88" value="-testID:int " style="text;strokeColor=none;fillColor=none;align=left;verticalAlign=top;spacingLeft=4;spacingRight=4;overflow=hidden;rotatable=0;points=[[0,0.5],[1,0.5]];portConstraint=eastwest;" vertex="1" parent="skcRQjhj_6bjSyMf3CT0-87">
          <mxGeometry y="26.375" width="415" height="26" as="geometry" />
        </mxCell>
        <mxCell id="skcRQjhj_6bjSyMf3CT0-89" value="-patientID:int " style="text;strokeColor=none;fillColor=none;align=left;verticalAlign=top;spacingLeft=4;spacingRight=4;overflow=hidden;rotatable=0;points=[[0,0.5],[1,0.5]];portConstraint=eastwest;" vertex="1" parent="skcRQjhj_6bjSyMf3CT0-87">
          <mxGeometry y="52.375" width="415" height="26" as="geometry" />
        </mxCell>
        <mxCell id="skcRQjhj_6bjSyMf3CT0-90" value="-testName:String " style="text;strokeColor=none;fillColor=none;align=left;verticalAlign=top;spacingLeft=4;spacingRight=4;overflow=hidden;rotatable=0;points=[[0,0.5],[1,0.5]];portConstraint=eastwest;" vertex="1" parent="skcRQjhj_6bjSyMf3CT0-87">
          <mxGeometry y="78.375" width="415" height="26" as="geometry" />
        </mxCell>
        <mxCell id="skcRQjhj_6bjSyMf3CT0-91" value="-testResult:String " style="text;strokeColor=none;fillColor=none;align=left;verticalAlign=top;spacingLeft=4;spacingRight=4;overflow=hidden;rotatable=0;points=[[0,0.5],[1,0.5]];portConstraint=eastwest;" vertex="1" parent="skcRQjhj_6bjSyMf3CT0-87">
          <mxGeometry y="104.375" width="415" height="26" as="geometry" />
        </mxCell>
        <mxCell id="skcRQjhj_6bjSyMf3CT0-92" value="-testDate:DateTime " style="text;strokeColor=none;fillColor=none;align=left;verticalAlign=top;spacingLeft=4;spacingRight=4;overflow=hidden;rotatable=0;points=[[0,0.5],[1,0.5]];portConstraint=eastwest;" vertex="1" parent="skcRQjhj_6bjSyMf3CT0-87">
          <mxGeometry y="130.375" width="415" height="26" as="geometry" />
        </mxCell>
        <mxCell id="skcRQjhj_6bjSyMf3CT0-93" style="line;strokeWidth=1;fillColor=none;align=left;verticalAlign=middle;spacingTop=-1;spacingLeft=3;spacingRight=3;rotatable=0;labelPosition=right;points=[];portConstraint=eastwest;strokeColor=inherit;" vertex="1" parent="skcRQjhj_6bjSyMf3CT0-87">
          <mxGeometry y="156.375" width="415" height="8" as="geometry" />
        </mxCell>
        <mxCell id="skcRQjhj_6bjSyMf3CT0-94" value="+getTestsByPatient(int patientID):List[Test] " style="text;strokeColor=none;fillColor=none;align=left;verticalAlign=top;spacingLeft=4;spacingRight=4;overflow=hidden;rotatable=0;points=[[0,0.5],[1,0.5]];portConstraint=eastwest;" vertex="1" parent="skcRQjhj_6bjSyMf3CT0-87">
          <mxGeometry y="164.375" width="415" height="26" as="geometry" />
        </mxCell>
        <mxCell id="skcRQjhj_6bjSyMf3CT0-95" value="+updateTestResult(int testID, String testResult):Boolean " style="text;strokeColor=none;fillColor=none;align=left;verticalAlign=top;spacingLeft=4;spacingRight=4;overflow=hidden;rotatable=0;points=[[0,0.5],[1,0.5]];portConstraint=eastwest;" vertex="1" parent="skcRQjhj_6bjSyMf3CT0-87">
          <mxGeometry y="190.375" width="415" height="26" as="geometry" />
        </mxCell>
        <mxCell id="skcRQjhj_6bjSyMf3CT0-96" value="Bill" style="swimlane;fontStyle=1;align=center;verticalAlign=top;childLayout=stackLayout;horizontal=1;startSize=25.7;horizontalStack=0;resizeParent=1;resizeParentMax=0;resizeLast=0;collapsible=0;marginBottom=0;" vertex="1" parent="1">
          <mxGeometry x="1229" y="446" width="325" height="267.7" as="geometry" />
        </mxCell>
        <mxCell id="skcRQjhj_6bjSyMf3CT0-97" value="-billID:int" style="text;strokeColor=none;fillColor=none;align=left;verticalAlign=top;spacingLeft=4;spacingRight=4;overflow=hidden;rotatable=0;points=[[0,0.5],[1,0.5]];portConstraint=eastwest;" vertex="1" parent="skcRQjhj_6bjSyMf3CT0-96">
          <mxGeometry y="25.7" width="325" height="26" as="geometry" />
        </mxCell>
        <mxCell id="skcRQjhj_6bjSyMf3CT0-98" value="-patientID:int " style="text;strokeColor=none;fillColor=none;align=left;verticalAlign=top;spacingLeft=4;spacingRight=4;overflow=hidden;rotatable=0;points=[[0,0.5],[1,0.5]];portConstraint=eastwest;" vertex="1" parent="skcRQjhj_6bjSyMf3CT0-96">
          <mxGeometry y="51.7" width="325" height="26" as="geometry" />
        </mxCell>
        <mxCell id="skcRQjhj_6bjSyMf3CT0-99" value="-amountDue:double " style="text;strokeColor=none;fillColor=none;align=left;verticalAlign=top;spacingLeft=4;spacingRight=4;overflow=hidden;rotatable=0;points=[[0,0.5],[1,0.5]];portConstraint=eastwest;" vertex="1" parent="skcRQjhj_6bjSyMf3CT0-96">
          <mxGeometry y="77.7" width="325" height="26" as="geometry" />
        </mxCell>
        <mxCell id="skcRQjhj_6bjSyMf3CT0-100" value="-details:String " style="text;strokeColor=none;fillColor=none;align=left;verticalAlign=top;spacingLeft=4;spacingRight=4;overflow=hidden;rotatable=0;points=[[0,0.5],[1,0.5]];portConstraint=eastwest;" vertex="1" parent="skcRQjhj_6bjSyMf3CT0-96">
          <mxGeometry y="103.7" width="325" height="26" as="geometry" />
        </mxCell>
        <mxCell id="skcRQjhj_6bjSyMf3CT0-101" value="-billingDate:DateTime " style="text;strokeColor=none;fillColor=none;align=left;verticalAlign=top;spacingLeft=4;spacingRight=4;overflow=hidden;rotatable=0;points=[[0,0.5],[1,0.5]];portConstraint=eastwest;" vertex="1" parent="skcRQjhj_6bjSyMf3CT0-96">
          <mxGeometry y="129.7" width="325" height="26" as="geometry" />
        </mxCell>
        <mxCell id="skcRQjhj_6bjSyMf3CT0-102" value="-paymentStatus:String " style="text;strokeColor=none;fillColor=none;align=left;verticalAlign=top;spacingLeft=4;spacingRight=4;overflow=hidden;rotatable=0;points=[[0,0.5],[1,0.5]];portConstraint=eastwest;" vertex="1" parent="skcRQjhj_6bjSyMf3CT0-96">
          <mxGeometry y="155.7" width="325" height="26" as="geometry" />
        </mxCell>
        <mxCell id="skcRQjhj_6bjSyMf3CT0-103" style="line;strokeWidth=1;fillColor=none;align=left;verticalAlign=middle;spacingTop=-1;spacingLeft=3;spacingRight=3;rotatable=0;labelPosition=right;points=[];portConstraint=eastwest;strokeColor=inherit;" vertex="1" parent="skcRQjhj_6bjSyMf3CT0-96">
          <mxGeometry y="181.7" width="325" height="8" as="geometry" />
        </mxCell>
        <mxCell id="skcRQjhj_6bjSyMf3CT0-104" value="+payBill(int billID, double amount):Boolean " style="text;strokeColor=none;fillColor=none;align=left;verticalAlign=top;spacingLeft=4;spacingRight=4;overflow=hidden;rotatable=0;points=[[0,0.5],[1,0.5]];portConstraint=eastwest;" vertex="1" parent="skcRQjhj_6bjSyMf3CT0-96">
          <mxGeometry y="189.7" width="325" height="26" as="geometry" />
        </mxCell>
        <mxCell id="skcRQjhj_6bjSyMf3CT0-105" value="+viewBill(int billID):Bill " style="text;strokeColor=none;fillColor=none;align=left;verticalAlign=top;spacingLeft=4;spacingRight=4;overflow=hidden;rotatable=0;points=[[0,0.5],[1,0.5]];portConstraint=eastwest;" vertex="1" parent="skcRQjhj_6bjSyMf3CT0-96">
          <mxGeometry y="215.7" width="325" height="26" as="geometry" />
        </mxCell>
        <mxCell id="skcRQjhj_6bjSyMf3CT0-106" value="+getBillsByPatient(int patientID):List[Bill] " style="text;strokeColor=none;fillColor=none;align=left;verticalAlign=top;spacingLeft=4;spacingRight=4;overflow=hidden;rotatable=0;points=[[0,0.5],[1,0.5]];portConstraint=eastwest;" vertex="1" parent="skcRQjhj_6bjSyMf3CT0-96">
          <mxGeometry y="241.7" width="325" height="26" as="geometry" />
        </mxCell>
        <mxCell id="skcRQjhj_6bjSyMf3CT0-107" value="Prescription" style="swimlane;fontStyle=1;align=center;verticalAlign=top;childLayout=stackLayout;horizontal=1;startSize=25.454545454545453;horizontalStack=0;resizeParent=1;resizeParentMax=0;resizeLast=0;collapsible=0;marginBottom=0;" vertex="1" parent="1">
          <mxGeometry x="1590" y="780" width="866" height="283.45454545454544" as="geometry" />
        </mxCell>
        <mxCell id="skcRQjhj_6bjSyMf3CT0-108" value="-prescriptionID:int " style="text;strokeColor=none;fillColor=none;align=left;verticalAlign=top;spacingLeft=4;spacingRight=4;overflow=hidden;rotatable=0;points=[[0,0.5],[1,0.5]];portConstraint=eastwest;" vertex="1" parent="skcRQjhj_6bjSyMf3CT0-107">
          <mxGeometry y="25.454545454545453" width="866" height="25" as="geometry" />
        </mxCell>
        <mxCell id="skcRQjhj_6bjSyMf3CT0-109" value="-patientID:int " style="text;strokeColor=none;fillColor=none;align=left;verticalAlign=top;spacingLeft=4;spacingRight=4;overflow=hidden;rotatable=0;points=[[0,0.5],[1,0.5]];portConstraint=eastwest;" vertex="1" parent="skcRQjhj_6bjSyMf3CT0-107">
          <mxGeometry y="50.45454545454545" width="866" height="25" as="geometry" />
        </mxCell>
        <mxCell id="skcRQjhj_6bjSyMf3CT0-110" value="-medication:String " style="text;strokeColor=none;fillColor=none;align=left;verticalAlign=top;spacingLeft=4;spacingRight=4;overflow=hidden;rotatable=0;points=[[0,0.5],[1,0.5]];portConstraint=eastwest;" vertex="1" parent="skcRQjhj_6bjSyMf3CT0-107">
          <mxGeometry y="75.45454545454545" width="866" height="25" as="geometry" />
        </mxCell>
        <mxCell id="skcRQjhj_6bjSyMf3CT0-111" value="-dosage:String " style="text;strokeColor=none;fillColor=none;align=left;verticalAlign=top;spacingLeft=4;spacingRight=4;overflow=hidden;rotatable=0;points=[[0,0.5],[1,0.5]];portConstraint=eastwest;" vertex="1" parent="skcRQjhj_6bjSyMf3CT0-107">
          <mxGeometry y="100.45454545454545" width="866" height="25" as="geometry" />
        </mxCell>
        <mxCell id="skcRQjhj_6bjSyMf3CT0-112" value="-frequency:String " style="text;strokeColor=none;fillColor=none;align=left;verticalAlign=top;spacingLeft=4;spacingRight=4;overflow=hidden;rotatable=0;points=[[0,0.5],[1,0.5]];portConstraint=eastwest;" vertex="1" parent="skcRQjhj_6bjSyMf3CT0-107">
          <mxGeometry y="125.45454545454545" width="866" height="25" as="geometry" />
        </mxCell>
        <mxCell id="skcRQjhj_6bjSyMf3CT0-113" value="-startDate:DateTime " style="text;strokeColor=none;fillColor=none;align=left;verticalAlign=top;spacingLeft=4;spacingRight=4;overflow=hidden;rotatable=0;points=[[0,0.5],[1,0.5]];portConstraint=eastwest;" vertex="1" parent="skcRQjhj_6bjSyMf3CT0-107">
          <mxGeometry y="150.45454545454544" width="866" height="25" as="geometry" />
        </mxCell>
        <mxCell id="skcRQjhj_6bjSyMf3CT0-114" value="-endDate:DateTime " style="text;strokeColor=none;fillColor=none;align=left;verticalAlign=top;spacingLeft=4;spacingRight=4;overflow=hidden;rotatable=0;points=[[0,0.5],[1,0.5]];portConstraint=eastwest;" vertex="1" parent="skcRQjhj_6bjSyMf3CT0-107">
          <mxGeometry y="175.45454545454544" width="866" height="25" as="geometry" />
        </mxCell>
        <mxCell id="skcRQjhj_6bjSyMf3CT0-115" style="line;strokeWidth=1;fillColor=none;align=left;verticalAlign=middle;spacingTop=-1;spacingLeft=3;spacingRight=3;rotatable=0;labelPosition=right;points=[];portConstraint=eastwest;strokeColor=inherit;" vertex="1" parent="skcRQjhj_6bjSyMf3CT0-107">
          <mxGeometry y="200.45454545454544" width="866" height="8" as="geometry" />
        </mxCell>
        <mxCell id="skcRQjhj_6bjSyMf3CT0-116" value="+requestRefill(int prescriptionID):Boolean " style="text;strokeColor=none;fillColor=none;align=left;verticalAlign=top;spacingLeft=4;spacingRight=4;overflow=hidden;rotatable=0;points=[[0,0.5],[1,0.5]];portConstraint=eastwest;" vertex="1" parent="skcRQjhj_6bjSyMf3CT0-107">
          <mxGeometry y="208.45454545454544" width="866" height="25" as="geometry" />
        </mxCell>
        <mxCell id="skcRQjhj_6bjSyMf3CT0-117" value="+newPrescription(String medication, String dosage, String frequency, DateTime startDate, DateTime endDate):Boolean " style="text;strokeColor=none;fillColor=none;align=left;verticalAlign=top;spacingLeft=4;spacingRight=4;overflow=hidden;rotatable=0;points=[[0,0.5],[1,0.5]];portConstraint=eastwest;" vertex="1" parent="skcRQjhj_6bjSyMf3CT0-107">
          <mxGeometry y="233.45454545454544" width="866" height="25" as="geometry" />
        </mxCell>
        <mxCell id="skcRQjhj_6bjSyMf3CT0-118" value="+getPrescriptionsByPatient(int patientID):List[Prescription] " style="text;strokeColor=none;fillColor=none;align=left;verticalAlign=top;spacingLeft=4;spacingRight=4;overflow=hidden;rotatable=0;points=[[0,0.5],[1,0.5]];portConstraint=eastwest;" vertex="1" parent="skcRQjhj_6bjSyMf3CT0-107">
          <mxGeometry y="258.45454545454544" width="866" height="25" as="geometry" />
        </mxCell>
        <mxCell id="skcRQjhj_6bjSyMf3CT0-119" value="MedicalRecordHistory" style="swimlane;fontStyle=1;align=center;verticalAlign=top;childLayout=stackLayout;horizontal=1;startSize=26;horizontalStack=0;resizeParent=1;resizeParentMax=0;resizeLast=0;collapsible=0;marginBottom=0;" vertex="1" parent="1">
          <mxGeometry x="765" y="1137" width="599" height="242" as="geometry" />
        </mxCell>
        <mxCell id="skcRQjhj_6bjSyMf3CT0-120" value="-recordID:int" style="text;strokeColor=none;fillColor=none;align=left;verticalAlign=top;spacingLeft=4;spacingRight=4;overflow=hidden;rotatable=0;points=[[0,0.5],[1,0.5]];portConstraint=eastwest;" vertex="1" parent="skcRQjhj_6bjSyMf3CT0-119">
          <mxGeometry y="26" width="599" height="26" as="geometry" />
        </mxCell>
        <mxCell id="skcRQjhj_6bjSyMf3CT0-121" value="-patientID:int " style="text;strokeColor=none;fillColor=none;align=left;verticalAlign=top;spacingLeft=4;spacingRight=4;overflow=hidden;rotatable=0;points=[[0,0.5],[1,0.5]];portConstraint=eastwest;" vertex="1" parent="skcRQjhj_6bjSyMf3CT0-119">
          <mxGeometry y="52" width="599" height="26" as="geometry" />
        </mxCell>
        <mxCell id="skcRQjhj_6bjSyMf3CT0-122" value="-diagnoses:String " style="text;strokeColor=none;fillColor=none;align=left;verticalAlign=top;spacingLeft=4;spacingRight=4;overflow=hidden;rotatable=0;points=[[0,0.5],[1,0.5]];portConstraint=eastwest;" vertex="1" parent="skcRQjhj_6bjSyMf3CT0-119">
          <mxGeometry y="78" width="599" height="26" as="geometry" />
        </mxCell>
        <mxCell id="skcRQjhj_6bjSyMf3CT0-123" value="-treatments:String " style="text;strokeColor=none;fillColor=none;align=left;verticalAlign=top;spacingLeft=4;spacingRight=4;overflow=hidden;rotatable=0;points=[[0,0.5],[1,0.5]];portConstraint=eastwest;" vertex="1" parent="skcRQjhj_6bjSyMf3CT0-119">
          <mxGeometry y="104" width="599" height="26" as="geometry" />
        </mxCell>
        <mxCell id="skcRQjhj_6bjSyMf3CT0-124" value="-prescriptions:List[Prescription] " style="text;strokeColor=none;fillColor=none;align=left;verticalAlign=top;spacingLeft=4;spacingRight=4;overflow=hidden;rotatable=0;points=[[0,0.5],[1,0.5]];portConstraint=eastwest;" vertex="1" parent="skcRQjhj_6bjSyMf3CT0-119">
          <mxGeometry y="130" width="599" height="26" as="geometry" />
        </mxCell>
        <mxCell id="skcRQjhj_6bjSyMf3CT0-125" value="-testResults:List[Test] " style="text;strokeColor=none;fillColor=none;align=left;verticalAlign=top;spacingLeft=4;spacingRight=4;overflow=hidden;rotatable=0;points=[[0,0.5],[1,0.5]];portConstraint=eastwest;" vertex="1" parent="skcRQjhj_6bjSyMf3CT0-119">
          <mxGeometry y="156" width="599" height="26" as="geometry" />
        </mxCell>
        <mxCell id="skcRQjhj_6bjSyMf3CT0-126" style="line;strokeWidth=1;fillColor=none;align=left;verticalAlign=middle;spacingTop=-1;spacingLeft=3;spacingRight=3;rotatable=0;labelPosition=right;points=[];portConstraint=eastwest;strokeColor=inherit;" vertex="1" parent="skcRQjhj_6bjSyMf3CT0-119">
          <mxGeometry y="182" width="599" height="8" as="geometry" />
        </mxCell>
        <mxCell id="skcRQjhj_6bjSyMf3CT0-127" value="+getMedicalHistory(int patientID):MedicalRecordHistory " style="text;strokeColor=none;fillColor=none;align=left;verticalAlign=top;spacingLeft=4;spacingRight=4;overflow=hidden;rotatable=0;points=[[0,0.5],[1,0.5]];portConstraint=eastwest;" vertex="1" parent="skcRQjhj_6bjSyMf3CT0-119">
          <mxGeometry y="190" width="599" height="26" as="geometry" />
        </mxCell>
        <mxCell id="skcRQjhj_6bjSyMf3CT0-128" value="+updateMedicalRecord(int recordID, String diagnoses, String treatments):Boolean " style="text;strokeColor=none;fillColor=none;align=left;verticalAlign=top;spacingLeft=4;spacingRight=4;overflow=hidden;rotatable=0;points=[[0,0.5],[1,0.5]];portConstraint=eastwest;" vertex="1" parent="skcRQjhj_6bjSyMf3CT0-119">
          <mxGeometry y="216" width="599" height="26" as="geometry" />
        </mxCell>
        <mxCell id="skcRQjhj_6bjSyMf3CT0-129" value="Appointment" style="swimlane;fontStyle=1;align=center;verticalAlign=top;childLayout=stackLayout;horizontal=1;startSize=25.454545454545453;horizontalStack=0;resizeParent=1;resizeParentMax=0;resizeLast=0;collapsible=0;marginBottom=0;" vertex="1" parent="1">
          <mxGeometry x="750" y="770" width="774" height="283.45454545454544" as="geometry" />
        </mxCell>
        <mxCell id="skcRQjhj_6bjSyMf3CT0-130" value="-appointmentID:int" style="text;strokeColor=none;fillColor=none;align=left;verticalAlign=top;spacingLeft=4;spacingRight=4;overflow=hidden;rotatable=0;points=[[0,0.5],[1,0.5]];portConstraint=eastwest;" vertex="1" parent="skcRQjhj_6bjSyMf3CT0-129">
          <mxGeometry y="25.454545454545453" width="774" height="25" as="geometry" />
        </mxCell>
        <mxCell id="skcRQjhj_6bjSyMf3CT0-131" value="-patientID:int" style="text;strokeColor=none;fillColor=none;align=left;verticalAlign=top;spacingLeft=4;spacingRight=4;overflow=hidden;rotatable=0;points=[[0,0.5],[1,0.5]];portConstraint=eastwest;" vertex="1" parent="skcRQjhj_6bjSyMf3CT0-129">
          <mxGeometry y="50.45454545454545" width="774" height="25" as="geometry" />
        </mxCell>
        <mxCell id="skcRQjhj_6bjSyMf3CT0-132" value="-appointmentTime:DateTime " style="text;strokeColor=none;fillColor=none;align=left;verticalAlign=top;spacingLeft=4;spacingRight=4;overflow=hidden;rotatable=0;points=[[0,0.5],[1,0.5]];portConstraint=eastwest;" vertex="1" parent="skcRQjhj_6bjSyMf3CT0-129">
          <mxGeometry y="75.45454545454545" width="774" height="25" as="geometry" />
        </mxCell>
        <mxCell id="skcRQjhj_6bjSyMf3CT0-133" value="-status:String " style="text;strokeColor=none;fillColor=none;align=left;verticalAlign=top;spacingLeft=4;spacingRight=4;overflow=hidden;rotatable=0;points=[[0,0.5],[1,0.5]];portConstraint=eastwest;" vertex="1" parent="skcRQjhj_6bjSyMf3CT0-129">
          <mxGeometry y="100.45454545454545" width="774" height="25" as="geometry" />
        </mxCell>
        <mxCell id="skcRQjhj_6bjSyMf3CT0-134" value="-doctorName:String " style="text;strokeColor=none;fillColor=none;align=left;verticalAlign=top;spacingLeft=4;spacingRight=4;overflow=hidden;rotatable=0;points=[[0,0.5],[1,0.5]];portConstraint=eastwest;" vertex="1" parent="skcRQjhj_6bjSyMf3CT0-129">
          <mxGeometry y="125.45454545454545" width="774" height="25" as="geometry" />
        </mxCell>
        <mxCell id="skcRQjhj_6bjSyMf3CT0-135" value="-reason:String " style="text;strokeColor=none;fillColor=none;align=left;verticalAlign=top;spacingLeft=4;spacingRight=4;overflow=hidden;rotatable=0;points=[[0,0.5],[1,0.5]];portConstraint=eastwest;" vertex="1" parent="skcRQjhj_6bjSyMf3CT0-129">
          <mxGeometry y="150.45454545454544" width="774" height="25" as="geometry" />
        </mxCell>
        <mxCell id="skcRQjhj_6bjSyMf3CT0-136" style="line;strokeWidth=1;fillColor=none;align=left;verticalAlign=middle;spacingTop=-1;spacingLeft=3;spacingRight=3;rotatable=0;labelPosition=right;points=[];portConstraint=eastwest;strokeColor=inherit;" vertex="1" parent="skcRQjhj_6bjSyMf3CT0-129">
          <mxGeometry y="175.45454545454544" width="774" height="8" as="geometry" />
        </mxCell>
        <mxCell id="skcRQjhj_6bjSyMf3CT0-137" value="+bookAppointment(int patientID, DateTime appointmentTime, String doctorName, String reason):Boolean " style="text;strokeColor=none;fillColor=none;align=left;verticalAlign=top;spacingLeft=4;spacingRight=4;overflow=hidden;rotatable=0;points=[[0,0.5],[1,0.5]];portConstraint=eastwest;" vertex="1" parent="skcRQjhj_6bjSyMf3CT0-129">
          <mxGeometry y="183.45454545454544" width="774" height="25" as="geometry" />
        </mxCell>
        <mxCell id="skcRQjhj_6bjSyMf3CT0-138" value="+cancelAppointment(int appointmentID):Boolean " style="text;strokeColor=none;fillColor=none;align=left;verticalAlign=top;spacingLeft=4;spacingRight=4;overflow=hidden;rotatable=0;points=[[0,0.5],[1,0.5]];portConstraint=eastwest;" vertex="1" parent="skcRQjhj_6bjSyMf3CT0-129">
          <mxGeometry y="208.45454545454544" width="774" height="25" as="geometry" />
        </mxCell>
        <mxCell id="skcRQjhj_6bjSyMf3CT0-139" value="+rescheduleAppointment(int appointmentID, DateTime newTime):Boolean " style="text;strokeColor=none;fillColor=none;align=left;verticalAlign=top;spacingLeft=4;spacingRight=4;overflow=hidden;rotatable=0;points=[[0,0.5],[1,0.5]];portConstraint=eastwest;" vertex="1" parent="skcRQjhj_6bjSyMf3CT0-129">
          <mxGeometry y="233.45454545454544" width="774" height="25" as="geometry" />
        </mxCell>
        <mxCell id="skcRQjhj_6bjSyMf3CT0-140" value="+getAppointmentsByPatient(int patientID):List[Appointment] " style="text;strokeColor=none;fillColor=none;align=left;verticalAlign=top;spacingLeft=4;spacingRight=4;overflow=hidden;rotatable=0;points=[[0,0.5],[1,0.5]];portConstraint=eastwest;" vertex="1" parent="skcRQjhj_6bjSyMf3CT0-129">
          <mxGeometry y="258.45454545454544" width="774" height="25" as="geometry" />
        </mxCell>
        <mxCell id="skcRQjhj_6bjSyMf3CT0-141" value="Notification" style="swimlane;fontStyle=1;align=center;verticalAlign=top;childLayout=stackLayout;horizontal=1;startSize=26.375;horizontalStack=0;resizeParent=1;resizeParentMax=0;resizeLast=0;collapsible=0;marginBottom=0;" vertex="1" parent="1">
          <mxGeometry x="640" y="-380" width="398" height="216.375" as="geometry" />
        </mxCell>
        <mxCell id="skcRQjhj_6bjSyMf3CT0-142" value="-notificationID:int " style="text;strokeColor=none;fillColor=none;align=left;verticalAlign=top;spacingLeft=4;spacingRight=4;overflow=hidden;rotatable=0;points=[[0,0.5],[1,0.5]];portConstraint=eastwest;" vertex="1" parent="skcRQjhj_6bjSyMf3CT0-141">
          <mxGeometry y="26.375" width="398" height="26" as="geometry" />
        </mxCell>
        <mxCell id="skcRQjhj_6bjSyMf3CT0-143" value="-patientID:int " style="text;strokeColor=none;fillColor=none;align=left;verticalAlign=top;spacingLeft=4;spacingRight=4;overflow=hidden;rotatable=0;points=[[0,0.5],[1,0.5]];portConstraint=eastwest;" vertex="1" parent="skcRQjhj_6bjSyMf3CT0-141">
          <mxGeometry y="52.375" width="398" height="26" as="geometry" />
        </mxCell>
        <mxCell id="skcRQjhj_6bjSyMf3CT0-144" value="-message:String " style="text;strokeColor=none;fillColor=none;align=left;verticalAlign=top;spacingLeft=4;spacingRight=4;overflow=hidden;rotatable=0;points=[[0,0.5],[1,0.5]];portConstraint=eastwest;" vertex="1" parent="skcRQjhj_6bjSyMf3CT0-141">
          <mxGeometry y="78.375" width="398" height="26" as="geometry" />
        </mxCell>
        <mxCell id="skcRQjhj_6bjSyMf3CT0-145" value="-sendDate:DateTime " style="text;strokeColor=none;fillColor=none;align=left;verticalAlign=top;spacingLeft=4;spacingRight=4;overflow=hidden;rotatable=0;points=[[0,0.5],[1,0.5]];portConstraint=eastwest;" vertex="1" parent="skcRQjhj_6bjSyMf3CT0-141">
          <mxGeometry y="104.375" width="398" height="26" as="geometry" />
        </mxCell>
        <mxCell id="skcRQjhj_6bjSyMf3CT0-146" style="line;strokeWidth=1;fillColor=none;align=left;verticalAlign=middle;spacingTop=-1;spacingLeft=3;spacingRight=3;rotatable=0;labelPosition=right;points=[];portConstraint=eastwest;strokeColor=inherit;" vertex="1" parent="skcRQjhj_6bjSyMf3CT0-141">
          <mxGeometry y="130.375" width="398" height="8" as="geometry" />
        </mxCell>
        <mxCell id="skcRQjhj_6bjSyMf3CT0-147" value="+sendReminder(int appointmentID):void " style="text;strokeColor=none;fillColor=none;align=left;verticalAlign=top;spacingLeft=4;spacingRight=4;overflow=hidden;rotatable=0;points=[[0,0.5],[1,0.5]];portConstraint=eastwest;" vertex="1" parent="skcRQjhj_6bjSyMf3CT0-141">
          <mxGeometry y="138.375" width="398" height="26" as="geometry" />
        </mxCell>
        <mxCell id="skcRQjhj_6bjSyMf3CT0-148" value="+sendBillNotification(int billID):void " style="text;strokeColor=none;fillColor=none;align=left;verticalAlign=top;spacingLeft=4;spacingRight=4;overflow=hidden;rotatable=0;points=[[0,0.5],[1,0.5]];portConstraint=eastwest;" vertex="1" parent="skcRQjhj_6bjSyMf3CT0-141">
          <mxGeometry y="164.375" width="398" height="26" as="geometry" />
        </mxCell>
        <mxCell id="skcRQjhj_6bjSyMf3CT0-149" value="+sendPrescriptionNotification(int prescriptionID):void " style="text;strokeColor=none;fillColor=none;align=left;verticalAlign=top;spacingLeft=4;spacingRight=4;overflow=hidden;rotatable=0;points=[[0,0.5],[1,0.5]];portConstraint=eastwest;" vertex="1" parent="skcRQjhj_6bjSyMf3CT0-141">
          <mxGeometry y="190.375" width="398" height="26" as="geometry" />
        </mxCell>
        <mxCell id="skcRQjhj_6bjSyMf3CT0-168" value="" style="curved=1;startArrow=none;endArrow=none;exitX=0.5001438347868217;exitY=1;entryX=0.4993511320951586;entryY=0;rounded=0;" edge="1" parent="1" source="skcRQjhj_6bjSyMf3CT0-129" target="skcRQjhj_6bjSyMf3CT0-119">
          <mxGeometry relative="1" as="geometry">
            <Array as="points" />
          </mxGeometry>
        </mxCell>
        <mxCell id="skcRQjhj_6bjSyMf3CT0-169" value="*" style="edgeLabel;resizable=0;labelBackgroundColor=none;fontSize=12;align=right;verticalAlign=top;" vertex="1" parent="skcRQjhj_6bjSyMf3CT0-168">
          <mxGeometry x="-1" relative="1" as="geometry" />
        </mxCell>
        <mxCell id="skcRQjhj_6bjSyMf3CT0-170" value="1" style="edgeLabel;resizable=0;labelBackgroundColor=none;fontSize=12;align=left;verticalAlign=bottom;" vertex="1" parent="skcRQjhj_6bjSyMf3CT0-168">
          <mxGeometry x="1" relative="1" as="geometry" />
        </mxCell>
        <mxCell id="skcRQjhj_6bjSyMf3CT0-171" value="" style="startArrow=none;endArrow=none;exitX=0.5000699155600462;exitY=1;entryX=0.9990641955342237;entryY=0.27891022882342503;rounded=0;" edge="1" parent="1" source="skcRQjhj_6bjSyMf3CT0-107" target="skcRQjhj_6bjSyMf3CT0-119">
          <mxGeometry relative="1" as="geometry" />
        </mxCell>
        <mxCell id="skcRQjhj_6bjSyMf3CT0-172" value="*" style="edgeLabel;resizable=0;labelBackgroundColor=none;fontSize=12;align=right;verticalAlign=top;" vertex="1" parent="skcRQjhj_6bjSyMf3CT0-171">
          <mxGeometry x="-1" relative="1" as="geometry" />
        </mxCell>
        <mxCell id="skcRQjhj_6bjSyMf3CT0-173" value="1" style="edgeLabel;resizable=0;labelBackgroundColor=none;fontSize=12;align=left;verticalAlign=bottom;" vertex="1" parent="skcRQjhj_6bjSyMf3CT0-171">
          <mxGeometry x="1" relative="1" as="geometry" />
        </mxCell>
        <mxCell id="skcRQjhj_6bjSyMf3CT0-174" value="" style="curved=1;startArrow=none;endArrow=none;exitX=0.49881610576923074;exitY=1;entryX=0.8409726081566349;entryY=0;rounded=0;" edge="1" parent="1" source="skcRQjhj_6bjSyMf3CT0-96" target="skcRQjhj_6bjSyMf3CT0-129">
          <mxGeometry relative="1" as="geometry">
            <Array as="points" />
          </mxGeometry>
        </mxCell>
        <mxCell id="skcRQjhj_6bjSyMf3CT0-175" value="*" style="edgeLabel;resizable=0;labelBackgroundColor=none;fontSize=12;align=right;verticalAlign=top;" vertex="1" parent="skcRQjhj_6bjSyMf3CT0-174">
          <mxGeometry x="-1" relative="1" as="geometry" />
        </mxCell>
        <mxCell id="skcRQjhj_6bjSyMf3CT0-176" value="1" style="edgeLabel;resizable=0;labelBackgroundColor=none;fontSize=12;align=left;verticalAlign=bottom;" vertex="1" parent="skcRQjhj_6bjSyMf3CT0-174">
          <mxGeometry x="1" relative="1" as="geometry" />
        </mxCell>
        <mxCell id="skcRQjhj_6bjSyMf3CT0-177" value="" style="endArrow=diamondThin;endFill=0;endSize=24;html=1;rounded=0;entryX=0.487;entryY=-0.01;entryDx=0;entryDy=0;entryPerimeter=0;exitX=0.43;exitY=1.21;exitDx=0;exitDy=0;exitPerimeter=0;" edge="1" parent="1" source="skcRQjhj_6bjSyMf3CT0-149" target="skcRQjhj_6bjSyMf3CT0-72">
          <mxGeometry width="160" relative="1" as="geometry">
            <mxPoint x="670" y="-80" as="sourcePoint" />
            <mxPoint x="830" y="-80" as="targetPoint" />
          </mxGeometry>
        </mxCell>
        <mxCell id="skcRQjhj_6bjSyMf3CT0-179" value="1" style="text;html=1;strokeColor=none;fillColor=none;align=center;verticalAlign=middle;whiteSpace=wrap;rounded=0;" vertex="1" parent="1">
          <mxGeometry x="780" y="-20" width="30" height="30" as="geometry" />
        </mxCell>
        <mxCell id="skcRQjhj_6bjSyMf3CT0-180" value="&lt;font style=&quot;font-size: 14px;&quot;&gt;*&lt;/font&gt;" style="text;html=1;strokeColor=none;fillColor=none;align=center;verticalAlign=middle;whiteSpace=wrap;rounded=0;" vertex="1" parent="1">
          <mxGeometry x="780" y="-140" width="30" height="30" as="geometry" />
        </mxCell>
        <mxCell id="skcRQjhj_6bjSyMf3CT0-182" value="" style="endArrow=diamondThin;endFill=0;endSize=24;html=1;rounded=0;entryX=1;entryY=0.5;entryDx=0;entryDy=0;exitX=0.58;exitY=-0.008;exitDx=0;exitDy=0;exitPerimeter=0;" edge="1" parent="1" source="skcRQjhj_6bjSyMf3CT0-107" target="skcRQjhj_6bjSyMf3CT0-81">
          <mxGeometry width="160" relative="1" as="geometry">
            <mxPoint x="1870" y="585" as="sourcePoint" />
            <mxPoint x="2030" y="585" as="targetPoint" />
          </mxGeometry>
        </mxCell>
        <mxCell id="skcRQjhj_6bjSyMf3CT0-183" value="1" style="text;html=1;strokeColor=none;fillColor=none;align=center;verticalAlign=middle;whiteSpace=wrap;rounded=0;" vertex="1" parent="1">
          <mxGeometry x="1410" y="240" width="30" height="30" as="geometry" />
        </mxCell>
        <mxCell id="skcRQjhj_6bjSyMf3CT0-184" value="&lt;font style=&quot;font-size: 14px;&quot;&gt;*&lt;/font&gt;" style="text;html=1;strokeColor=none;fillColor=none;align=center;verticalAlign=middle;whiteSpace=wrap;rounded=0;" vertex="1" parent="1">
          <mxGeometry x="2068" y="740" width="60" height="30" as="geometry" />
        </mxCell>
        <mxCell id="skcRQjhj_6bjSyMf3CT0-187" value="" style="endArrow=diamondThin;endFill=0;endSize=24;html=1;rounded=0;entryX=0.026;entryY=0.991;entryDx=0;entryDy=0;entryPerimeter=0;exitX=0.374;exitY=0.013;exitDx=0;exitDy=0;exitPerimeter=0;" edge="1" parent="1" source="skcRQjhj_6bjSyMf3CT0-87" target="skcRQjhj_6bjSyMf3CT0-86">
          <mxGeometry width="160" relative="1" as="geometry">
            <mxPoint x="-110" y="370" as="sourcePoint" />
            <mxPoint x="50" y="370" as="targetPoint" />
          </mxGeometry>
        </mxCell>
        <mxCell id="skcRQjhj_6bjSyMf3CT0-188" value="&lt;font style=&quot;font-size: 14px;&quot;&gt;*&lt;/font&gt;" style="text;html=1;strokeColor=none;fillColor=none;align=center;verticalAlign=middle;whiteSpace=wrap;rounded=0;" vertex="1" parent="1">
          <mxGeometry x="230" y="370" width="34" height="30" as="geometry" />
        </mxCell>
        <mxCell id="skcRQjhj_6bjSyMf3CT0-190" value="1" style="text;html=1;strokeColor=none;fillColor=none;align=center;verticalAlign=middle;whiteSpace=wrap;rounded=0;" vertex="1" parent="1">
          <mxGeometry x="160" y="430" width="30" height="30" as="geometry" />
        </mxCell>
        <mxCell id="skcRQjhj_6bjSyMf3CT0-191" value="" style="endArrow=diamondThin;endFill=0;endSize=24;html=1;rounded=0;entryX=0.245;entryY=1.132;entryDx=0;entryDy=0;entryPerimeter=0;exitX=0;exitY=0.5;exitDx=0;exitDy=0;" edge="1" parent="1" source="skcRQjhj_6bjSyMf3CT0-120" target="skcRQjhj_6bjSyMf3CT0-86">
          <mxGeometry width="160" relative="1" as="geometry">
            <mxPoint x="390" y="900" as="sourcePoint" />
            <mxPoint x="550" y="900" as="targetPoint" />
          </mxGeometry>
        </mxCell>
        <mxCell id="skcRQjhj_6bjSyMf3CT0-192" value="1" style="text;html=1;strokeColor=none;fillColor=none;align=center;verticalAlign=middle;whiteSpace=wrap;rounded=0;" vertex="1" parent="1">
          <mxGeometry x="720" y="1140" width="30" height="30" as="geometry" />
        </mxCell>
        <mxCell id="skcRQjhj_6bjSyMf3CT0-194" value="&lt;font style=&quot;font-size: 14px;&quot;&gt;*&lt;/font&gt;" style="text;html=1;strokeColor=none;fillColor=none;align=center;verticalAlign=middle;whiteSpace=wrap;rounded=0;" vertex="1" parent="1">
          <mxGeometry x="510" y="400" width="34" height="30" as="geometry" />
        </mxCell>
        <mxCell id="skcRQjhj_6bjSyMf3CT0-196" value="" style="endArrow=diamondThin;endFill=1;endSize=24;html=1;rounded=0;exitX=0.379;exitY=0.011;exitDx=0;exitDy=0;exitPerimeter=0;entryX=0.635;entryY=1.132;entryDx=0;entryDy=0;entryPerimeter=0;" edge="1" parent="1" source="skcRQjhj_6bjSyMf3CT0-129" target="skcRQjhj_6bjSyMf3CT0-86">
          <mxGeometry width="160" relative="1" as="geometry">
            <mxPoint x="1220" y="480" as="sourcePoint" />
            <mxPoint x="1380" y="480" as="targetPoint" />
          </mxGeometry>
        </mxCell>
        <mxCell id="skcRQjhj_6bjSyMf3CT0-197" value="&lt;font style=&quot;font-size: 14px;&quot;&gt;*&lt;/font&gt;" style="text;html=1;strokeColor=none;fillColor=none;align=center;verticalAlign=middle;whiteSpace=wrap;rounded=0;" vertex="1" parent="1">
          <mxGeometry x="940" y="390" width="34" height="30" as="geometry" />
        </mxCell>
        <mxCell id="skcRQjhj_6bjSyMf3CT0-199" value="1" style="text;html=1;strokeColor=none;fillColor=none;align=center;verticalAlign=middle;whiteSpace=wrap;rounded=0;" vertex="1" parent="1">
          <mxGeometry x="1000" y="740" width="30" height="30" as="geometry" />
        </mxCell>
        <mxCell id="skcRQjhj_6bjSyMf3CT0-200" value="" style="endArrow=diamondThin;endFill=1;endSize=24;html=1;rounded=0;entryX=0.913;entryY=0.85;entryDx=0;entryDy=0;entryPerimeter=0;exitX=0.5;exitY=0;exitDx=0;exitDy=0;" edge="1" parent="1" source="skcRQjhj_6bjSyMf3CT0-96" target="skcRQjhj_6bjSyMf3CT0-86">
          <mxGeometry width="160" relative="1" as="geometry">
            <mxPoint x="1220" y="600" as="sourcePoint" />
            <mxPoint x="1380" y="600" as="targetPoint" />
          </mxGeometry>
        </mxCell>
        <mxCell id="skcRQjhj_6bjSyMf3CT0-201" value="&lt;font style=&quot;font-size: 14px;&quot;&gt;*&lt;/font&gt;" style="text;html=1;strokeColor=none;fillColor=none;align=center;verticalAlign=middle;whiteSpace=wrap;rounded=0;" vertex="1" parent="1">
          <mxGeometry x="1270" y="377.93" width="34" height="30" as="geometry" />
        </mxCell>
        <mxCell id="skcRQjhj_6bjSyMf3CT0-203" value="1" style="text;html=1;strokeColor=none;fillColor=none;align=center;verticalAlign=middle;whiteSpace=wrap;rounded=0;" vertex="1" parent="1">
          <mxGeometry x="1330" y="416" width="30" height="30" as="geometry" />
        </mxCell>
      </root>
    </mxGraphModel>
  </diagram>
</mxfile>
